<svg width="45" height="45" viewBox="0 0 45 45" fill="none" xmlns="http://www.w3.org/2000/svg">
<rect x="-0.000244141" width="45" height="45" rx="22.5" fill="#254B86"/>
<circle cx="22.4998" cy="22.5014" r="19.3608" stroke="#1890FF" stroke-width="4"/>
<path fill-rule="evenodd" clip-rule="evenodd" d="M23.85 20.8519L18.9715 17.1489C18.0917 16.481 17.8309 15.1669 18.389 14.2138C18.9471 13.2606 20.1128 13.0292 20.9926 13.6971L30.7809 21.1269L33.1262 22.9071L30.8788 24.613L21.0905 32.0428C20.2474 32.6828 19.0677 32.4135 18.4555 31.4414C17.8433 30.4692 18.0305 29.1624 18.8736 28.5224L23.7092 24.8519L16.6917 24.8519C15.5871 24.8519 14.6917 23.9565 14.6917 22.8519C14.6917 21.7474 15.5871 20.8519 16.6917 20.8519L23.85 20.8519Z" fill="#1890FF"/>
</svg>
