<svg width="75" height="75" viewBox="0 0 75 75" fill="none" xmlns="http://www.w3.org/2000/svg">
<circle cx="37.5" cy="37.5" r="37.5" fill="#FEB25E"/>
<g clip-path="url(#clip0_134_19563)">
<g clip-path="url(#clip1_134_19563)">
<path d="M32.067 26.6992L30.5869 32.1328H33.547L32.067 26.6992Z" fill="white"/>
<path d="M50.8257 16.5078H22.6642C21.2651 16.5078 20.127 17.646 20.127 19.045V41.2032H53.3629V19.045C53.3629 17.646 52.2247 16.5078 50.8257 16.5078ZM37.3068 37.3038C36.8673 37.5606 36.4112 37.689 35.9382 37.689C35.3569 37.689 35.0123 37.4932 34.9042 37.101L34.2148 34.5667H29.9367L29.2474 37.101C29.1391 37.4932 28.7943 37.689 28.2134 37.689C27.7401 37.689 27.2839 37.5606 26.8448 37.3038C26.4054 37.0472 26.1859 36.7431 26.1859 36.3914C26.1859 36.3508 26.1992 36.2769 26.2265 36.1684L29.9976 23.8007C30.1056 23.4631 30.3524 23.2026 30.7377 23.0202C31.123 22.8378 31.5655 22.7465 32.0657 22.7465C32.5656 22.7465 33.0084 22.8377 33.3937 23.0202C33.7788 23.2026 34.0253 23.4631 34.1338 23.8007L37.9251 36.1684C37.952 36.2767 37.9657 36.3508 37.9657 36.3914C37.9657 36.7431 37.7459 37.0472 37.3068 37.3038ZM47.0284 36.7158C47.0284 36.9863 46.8829 37.2159 46.5925 37.4052C46.3016 37.5947 45.9335 37.6891 45.4875 37.6891C45.0953 37.6891 44.7642 37.5881 44.494 37.3859C44.2234 37.1838 44.0885 36.9386 44.0885 36.65V36.1736C43.1559 37.3191 42.1286 37.8918 41.0068 37.8918C40.2632 37.8918 39.6449 37.6526 39.1516 37.1737C38.6581 36.695 38.4116 35.9981 38.4116 35.0829C38.4116 34.0023 38.8202 33.2407 39.6383 32.7978C40.4559 32.3553 41.6283 32.1338 43.1559 32.1338H43.8858V31.9215C43.8857 31.4966 43.7641 31.1286 43.5208 30.8169C43.2775 30.5055 42.8923 30.3496 42.3651 30.3496C41.7164 30.3496 41.1823 30.4747 40.7634 30.7246C40.3443 30.9749 40.0874 31.0997 39.993 31.0997C39.6686 31.0997 39.4116 30.941 39.2225 30.6233C39.033 30.3058 38.9386 29.944 38.9386 29.5386C38.9386 29.0925 39.3137 28.7107 40.0639 28.393C40.8141 28.0755 41.5947 27.9166 42.4057 27.9166C43.9598 27.9166 45.119 28.2951 45.8828 29.0519C46.6463 29.8091 47.0283 30.755 47.0283 31.8905V36.7158H47.0284Z" fill="white"/>
<path d="M43.8074 33.6602C43.3612 33.6602 42.9928 33.6792 42.7024 33.7166C42.4115 33.7542 42.1514 33.8516 41.9218 34.0081C41.6917 34.1646 41.5771 34.387 41.5771 34.6753C41.5771 35.2018 41.8407 35.4647 42.3678 35.4647C42.7055 35.4647 43.0436 35.2895 43.3816 34.9385C43.7192 34.5874 43.8885 34.1864 43.8885 33.7352V33.6602H43.8074Z" fill="white"/>
<path d="M20.127 43.668V55.9718C20.127 57.3709 21.2651 58.5091 22.6642 58.5091H50.8257C52.2247 58.5091 53.3629 57.3709 53.3629 55.9718V43.668H20.127ZM27.1644 46.5872H33.5536C34.2339 46.5872 34.7854 47.1387 34.7854 47.819C34.7854 48.4993 34.2339 49.0508 33.5536 49.0508H27.1644C26.4841 49.0508 25.9326 48.4993 25.9326 47.819C25.9326 47.1387 26.4842 46.5872 27.1644 46.5872ZM38.5085 52.9715H27.1644C26.4841 52.9715 25.9326 52.42 25.9326 51.7397C25.9326 51.0594 26.4841 50.5079 27.1644 50.5079H38.5084C39.1887 50.5079 39.7402 51.0594 39.7402 51.7397C39.7402 52.42 39.1888 52.9715 38.5085 52.9715ZM46.2404 52.9715H43.1762C42.4959 52.9715 41.9444 52.42 41.9444 51.7397C41.9444 51.0594 42.4959 50.5079 43.1762 50.5079H46.2404C46.9207 50.5079 47.4722 51.0594 47.4722 51.7397C47.4722 52.42 46.9207 52.9715 46.2404 52.9715Z" fill="white"/>
</g>
</g>
<defs>
<clipPath id="clip0_134_19563">
<rect width="31.5" height="42" fill="white" transform="translate(20.998 16.5078)"/>
</clipPath>
<clipPath id="clip1_134_19563">
<rect width="42" height="42" fill="white" transform="translate(15.748 16.5078)"/>
</clipPath>
</defs>
</svg>
