<svg width="35" height="43" viewBox="0 0 35 43" fill="none" xmlns="http://www.w3.org/2000/svg">
<path d="M6.11593 0.552734C4.54595 0.552734 3.04026 1.17641 1.93011 2.28656C0.819964 3.39671 0.196289 4.90239 0.196289 6.47238L0.196289 36.5259C0.196289 38.0959 0.819964 39.6016 1.93011 40.7118C3.04026 41.8219 4.54595 42.4456 6.11593 42.4456L33.4374 42.4456C33.7997 42.4456 34.1471 42.3017 34.4033 42.0455C34.6595 41.7893 34.8034 41.4418 34.8034 41.0795C34.8034 40.7172 34.6595 40.3697 34.4033 40.1136C34.1471 39.8574 33.7997 39.7134 33.4374 39.7134L6.11593 39.7134C5.34946 39.7134 4.60867 39.4372 4.02928 38.9354C3.44989 38.4337 3.07071 37.7399 2.96122 36.9813L33.4374 36.9813C33.7997 36.9813 34.1471 36.8374 34.4033 36.5812C34.6595 36.325 34.8034 35.9775 34.8034 35.6152L34.8034 6.47238C34.8034 4.90239 34.1798 3.39671 33.0696 2.28656C31.9595 1.17641 30.4538 0.552734 28.8838 0.552734L6.11593 0.552734ZM21.1427 16.0294C21.1437 16.996 20.7606 17.9235 20.0778 18.6077C19.395 19.2918 18.4683 19.6768 17.5017 19.6777C16.5351 19.6787 15.6076 19.2956 14.9234 18.6128C14.2392 17.93 13.8543 17.0033 13.8534 16.0367C13.8529 15.5581 13.9467 15.084 14.1294 14.6417C14.3121 14.1993 14.5802 13.7972 14.9183 13.4585C15.6011 12.7743 16.5278 12.3893 17.4944 12.3884C18.461 12.3874 19.3884 12.7705 20.0726 13.4533C20.7568 14.1361 21.1418 15.0628 21.1427 16.0294ZM23.8749 22.98V23.9636C23.8749 25.9398 21.1609 27.4188 17.4999 27.4188C13.8388 27.4188 11.1249 25.938 11.1249 23.9654V22.98C11.1241 22.7861 11.1617 22.5939 11.2352 22.4146C11.3088 22.2352 11.4171 22.072 11.5538 21.9345C11.6904 21.797 11.8529 21.6877 12.0318 21.613C12.2108 21.5383 12.4027 21.4996 12.5966 21.4992H22.4031C22.597 21.4996 22.789 21.5383 22.9679 21.613C23.1468 21.6877 23.3093 21.797 23.446 21.9345C23.5826 22.072 23.6909 22.2352 23.7645 22.4146C23.8381 22.5939 23.8756 22.7861 23.8749 22.98Z" fill="white"/>
</svg>
