<svg width="37" height="37" viewBox="0 0 37 37" fill="none" xmlns="http://www.w3.org/2000/svg">
<circle cx="18.5" cy="18.5" r="18.5" fill="#9CC869"/>
<g filter="url(#filter0_d_28_5229)">
<path d="M17.8417 10.7965C15.9562 10.7965 14.1479 11.4705 12.8147 12.6702C11.4814 13.8699 10.7324 15.497 10.7324 17.1937C10.7324 17.4361 10.8394 17.6685 11.0299 17.8399C11.2203 18.0113 11.4787 18.1076 11.748 18.1076C12.0174 18.1076 12.2757 18.0113 12.4662 17.8399C12.6566 17.6685 12.7636 17.4361 12.7636 17.1937C12.7636 15.9818 13.2986 14.8196 14.251 13.9626C15.2033 13.1057 16.4949 12.6243 17.8417 12.6243C19.1885 12.6243 20.4801 13.1057 21.4324 13.9626C22.3848 14.8196 22.9198 15.9818 22.9198 17.1937C22.9166 18.0204 22.6676 18.8314 22.1987 19.5424L18.5831 26.3325C18.405 26.6101 18.1489 26.8406 17.8405 27.001C17.5321 27.1614 17.1823 27.2461 16.8261 27.2464C16.2874 27.2464 15.7707 27.0538 15.3898 26.711C15.0089 26.3683 14.7949 25.9034 14.7949 25.4186C14.7949 25.1762 14.6879 24.9438 14.4974 24.7724C14.3069 24.601 14.0486 24.5047 13.7792 24.5047C13.5099 24.5047 13.2516 24.601 13.0611 24.7724C12.8706 24.9438 12.7636 25.1762 12.7636 25.4186C12.7636 26.3881 13.1916 27.3179 13.9535 28.0035C14.7154 28.689 15.7487 29.0741 16.8261 29.0741C17.5524 29.0736 18.2653 28.8978 18.8905 28.565C19.5157 28.2323 20.0303 27.7549 20.3807 27.1824L23.9963 20.3923C24.6242 19.4211 24.9537 18.3172 24.951 17.1937C24.951 15.497 24.202 13.8699 22.8687 12.6702C21.5355 11.4705 19.7272 10.7965 17.8417 10.7965ZM10.7324 21.7631C10.5315 21.7631 10.3352 21.8167 10.1682 21.9171C10.0011 22.0175 9.87098 22.1603 9.79411 22.3272C9.71724 22.4942 9.69712 22.678 9.73631 22.8553C9.7755 23.0325 9.87223 23.1954 10.0143 23.3232C10.1563 23.451 10.3373 23.538 10.5343 23.5733C10.7313 23.6086 10.9355 23.5905 11.1211 23.5213C11.3066 23.4521 11.4653 23.335 11.5769 23.1847C11.6885 23.0344 11.748 22.8577 11.748 22.677C11.748 22.4346 11.641 22.2022 11.4506 22.0308C11.2601 21.8594 11.0018 21.7631 10.7324 21.7631ZM24.5346 9.15153C24.4279 9.07952 24.3065 9.02713 24.1773 8.99734C24.0481 8.96756 23.9136 8.96096 23.7816 8.97793C23.6496 8.99491 23.5225 9.03511 23.4078 9.09626C23.293 9.15741 23.1928 9.23829 23.1127 9.3343C23.0327 9.43031 22.9745 9.53957 22.9414 9.65582C22.9083 9.77208 22.901 9.89307 22.9198 10.0119C22.9387 10.1307 22.9834 10.245 23.0513 10.3482C23.1193 10.4515 23.2092 10.5417 23.3159 10.6137C24.4529 11.3789 25.3763 12.3719 26.0127 13.5141C26.6491 14.6562 26.981 15.916 26.9822 17.1937C26.9822 17.4361 27.0892 17.6685 27.2797 17.8399C27.4701 18.0113 27.7285 18.1076 27.9978 18.1076C28.2672 18.1076 28.5255 18.0113 28.716 17.8399C28.9064 17.6685 29.0134 17.4361 29.0134 17.1937C29.0076 15.633 28.6001 14.0948 27.8231 12.6995C27.046 11.3043 25.9205 10.0899 24.5346 9.15153ZM17.8417 16.2798C18.1111 16.2798 18.3694 16.3761 18.5598 16.5475C18.7503 16.7189 18.8573 16.9513 18.8573 17.1937C18.8573 17.4361 18.9643 17.6685 19.1548 17.8399C19.3452 18.0113 19.6036 18.1076 19.8729 18.1076C20.1423 18.1076 20.4006 18.0113 20.5911 17.8399C20.7815 17.6685 20.8885 17.4361 20.8885 17.1937C20.8885 16.4666 20.5675 15.7692 19.9961 15.255C19.4247 14.7409 18.6498 14.452 17.8417 14.452C17.0336 14.452 16.2587 14.7409 15.6873 15.255C15.1159 15.7692 14.7949 16.4666 14.7949 17.1937C14.7935 17.7405 14.9739 18.2752 15.3128 18.729C15.4528 18.9078 15.6127 19.0731 15.7902 19.2225L15.9933 19.4236C16.1046 19.5737 16.1641 19.7502 16.1641 19.9308C16.1641 20.1113 16.1046 20.2878 15.9933 20.438C15.8401 20.6368 15.7808 20.8822 15.8284 21.1203C15.876 21.3585 16.0266 21.5699 16.2472 21.7083C16.417 21.8149 16.619 21.8723 16.8261 21.8728C16.9898 21.8725 17.1511 21.8367 17.2961 21.7682C17.4411 21.6998 17.5656 21.6008 17.6589 21.4798C18.006 21.0236 18.1918 20.4836 18.1918 19.9308C18.1918 19.3779 18.006 18.8379 17.6589 18.3817C17.5521 18.2454 17.4332 18.117 17.3034 17.9979L17.1612 17.87C17.1018 17.8195 17.0474 17.7645 16.9987 17.7055C16.8858 17.5542 16.8256 17.376 16.8261 17.1937C16.8261 16.9513 16.9331 16.7189 17.1236 16.5475C17.314 16.3761 17.5723 16.2798 17.8417 16.2798ZM13.7792 21.7631C13.9801 21.7631 14.1765 21.7095 14.3435 21.6091C14.5105 21.5087 14.6407 21.3659 14.7176 21.1989C14.7944 21.0319 14.8145 20.8482 14.7753 20.6709C14.7362 20.4936 14.6394 20.3308 14.4974 20.203C14.3554 20.0752 14.1744 19.9882 13.9774 19.9529C13.7804 19.9176 13.5762 19.9357 13.3906 20.0049C13.205 20.0741 13.0464 20.1912 12.9348 20.3415C12.8232 20.4918 12.7636 20.6685 12.7636 20.8492C12.7636 21.0916 12.8706 21.324 13.0611 21.4954C13.2516 21.6668 13.5099 21.7631 13.7792 21.7631Z" fill="white"/>
</g>
<defs>
<filter id="filter0_d_28_5229" x="8.7168" y="7.96875" width="21.2969" height="22.1055" filterUnits="userSpaceOnUse" color-interpolation-filters="sRGB">
<feFlood flood-opacity="0" result="BackgroundImageFix"/>
<feColorMatrix in="SourceAlpha" type="matrix" values="0 0 0 0 0 0 0 0 0 0 0 0 0 0 0 0 0 0 127 0" result="hardAlpha"/>
<feOffset/>
<feGaussianBlur stdDeviation="0.5"/>
<feComposite in2="hardAlpha" operator="out"/>
<feColorMatrix type="matrix" values="0 0 0 0 0 0 0 0 0 0 0 0 0 0 0 0 0 0 0.25 0"/>
<feBlend mode="normal" in2="BackgroundImageFix" result="effect1_dropShadow_28_5229"/>
<feBlend mode="normal" in="SourceGraphic" in2="effect1_dropShadow_28_5229" result="shape"/>
</filter>
</defs>
</svg>
