<svg width="30" height="30" viewBox="0 0 30 30" fill="none" xmlns="http://www.w3.org/2000/svg">
<path d="M29.5 15C29.5 23.0081 23.0081 29.5 15 29.5C6.99187 29.5 0.5 23.0081 0.5 15C0.5 6.99187 6.99187 0.5 15 0.5C23.0081 0.5 29.5 6.99187 29.5 15Z" fill="#A5D4FF" stroke="#0069CC"/>
<path d="M7.58 14.86C7.58 16.8867 7.70667 18.28 7.96 19.04C8.21333 19.7867 8.74667 20.16 9.56 20.16C10.3733 20.16 10.9067 19.7867 11.16 19.04C11.4133 18.28 11.54 16.8867 11.54 14.86C11.54 12.8467 11.4133 11.46 11.16 10.7C10.9067 9.94 10.3733 9.56 9.56 9.56C8.74667 9.56 8.21333 9.94 7.96 10.7C7.70667 11.46 7.58 12.8467 7.58 14.86ZM13.16 23.7L11.46 22C10.9 22.1467 10.2667 22.22 9.56 22.22C8.72 22.22 8 22.1 7.4 21.86C6.8 21.62 6.32667 21.3067 5.98 20.92C5.63333 20.52 5.36 19.9933 5.16 19.34C4.97333 18.6733 4.84667 18.0067 4.78 17.34C4.72667 16.66 4.7 15.8333 4.7 14.86C4.7 13.8867 4.72667 13.0667 4.78 12.4C4.84667 11.7333 4.97333 11.0667 5.16 10.4C5.36 9.72 5.63333 9.18 5.98 8.78C6.32667 8.38 6.8 8.06 7.4 7.82C8 7.56667 8.72 7.44 9.56 7.44C10.4 7.44 11.12 7.56667 11.72 7.82C12.32 8.06 12.7933 8.38 13.14 8.78C13.4867 9.18 13.7533 9.72 13.94 10.4C14.14 11.0667 14.2667 11.7333 14.32 12.4C14.3867 13.0667 14.42 13.8867 14.42 14.86C14.42 16.2467 14.3467 17.4067 14.2 18.34C14.0533 19.26 13.76 20.0333 13.32 20.66L14.86 22.16L13.16 23.7ZM18.7533 22V12H15.9333V10.12H16.1933C18.1266 10.12 19.2333 9.36 19.5133 7.84H21.6333V22H18.7533Z" fill="#254B86"/>
</svg>
