<svg width="75" height="75" viewBox="0 0 75 75" fill="none" xmlns="http://www.w3.org/2000/svg">
<circle cx="37.5" cy="37.5" r="37.5" fill="#FD485A"/>
<path d="M22.4214 34H28.7814C31.3414 34 32.6214 32.8667 32.6214 30.6C32.6214 28.4133 31.1814 27.32 28.3014 27.32H22.4214V34ZM16.1414 22.44H29.5814C35.6614 22.44 38.7014 24.8 38.7014 29.52C38.7014 32.24 37.4081 34.2267 34.8214 35.48C36.5547 35.96 37.8614 36.84 38.7414 38.12C39.6214 39.3733 40.0614 40.9067 40.0614 42.72C40.0614 45.44 39.0881 47.5067 37.1414 48.92C35.1947 50.3067 32.8081 51 29.9814 51H16.1414V22.44ZM22.4214 46.12H29.1414C32.2347 46.12 33.7814 44.8667 33.7814 42.36C33.7814 39.64 32.2747 38.28 29.2614 38.28H22.4214V46.12ZM58.8655 40.68C58.8655 38.7867 58.4521 37.2133 57.6255 35.96C56.8255 34.68 55.6255 34.04 54.0255 34.04C52.4255 34.04 51.2121 34.68 50.3855 35.96C49.5855 37.2133 49.1855 38.7867 49.1855 40.68C49.1855 42.5467 49.5988 44.12 50.4255 45.4C51.2521 46.6533 52.4521 47.28 54.0255 47.28C55.5988 47.28 56.7988 46.6533 57.6255 45.4C58.4521 44.12 58.8655 42.5467 58.8655 40.68ZM43.7055 22.44H49.3855V32.84H49.4655C50.8255 30.7867 52.9988 29.76 55.9855 29.76C58.2788 29.76 60.2788 30.6933 61.9855 32.56C63.6921 34.4267 64.5455 37.12 64.5455 40.64C64.5455 44.16 63.6921 46.8533 61.9855 48.72C60.2788 50.5867 58.2788 51.52 55.9855 51.52C52.5988 51.52 50.3321 50.4667 49.1855 48.36H49.1055V51H43.7055V22.44Z" fill="white"/>
</svg>
