<svg width="75" height="75" viewBox="0 0 75 75" fill="none" xmlns="http://www.w3.org/2000/svg">
<circle cx="37.5" cy="37.5" r="37.5" fill="#C68AE0"/>
<g filter="url(#filter0_d_134_19538)">
<path fill-rule="evenodd" clip-rule="evenodd" d="M47.5026 22.9915C47.5026 27.7481 43.0458 31.6041 37.5481 31.6041C32.0504 31.6041 27.5937 27.7481 27.5937 22.9915C27.5937 18.2349 32.0504 14.3789 37.5481 14.3789C43.0458 14.3789 47.5026 18.2349 47.5026 22.9915ZM17.6351 53.1396C26.2208 53.1396 37.544 57.4459 37.544 57.4459V33.7612C37.544 33.7612 26.3452 29.4549 15.1465 29.4549L16.0508 38.0619H15.1476C14.401 38.0619 13.9033 38.4925 13.9033 39.1384V43.4447C13.9033 44.0907 14.401 44.5213 15.1476 44.5213H16.3919C16.5055 44.5213 16.6177 44.5173 16.7283 44.5093L17.6351 53.1396ZM57.4556 53.1396C48.8699 53.1396 37.5467 57.4459 37.5467 57.4459V33.7612C37.5467 33.7612 48.7454 29.4549 59.9442 29.4549L59.0398 38.0619H59.9437C60.6903 38.0619 61.188 38.4925 61.188 39.1384V43.4447C61.188 44.0907 60.6903 44.5213 59.9437 44.5213H58.6994C58.5855 44.5213 58.4732 44.5173 58.3624 44.5093L57.4556 53.1396Z" fill="white"/>
</g>
<defs>
<filter id="filter0_d_134_19538" x="12.9033" y="13.3789" width="49.2842" height="45.0664" filterUnits="userSpaceOnUse" color-interpolation-filters="sRGB">
<feFlood flood-opacity="0" result="BackgroundImageFix"/>
<feColorMatrix in="SourceAlpha" type="matrix" values="0 0 0 0 0 0 0 0 0 0 0 0 0 0 0 0 0 0 127 0" result="hardAlpha"/>
<feOffset/>
<feGaussianBlur stdDeviation="0.5"/>
<feComposite in2="hardAlpha" operator="out"/>
<feColorMatrix type="matrix" values="0 0 0 0 0 0 0 0 0 0 0 0 0 0 0 0 0 0 0.25 0"/>
<feBlend mode="normal" in2="BackgroundImageFix" result="effect1_dropShadow_134_19538"/>
<feBlend mode="normal" in="SourceGraphic" in2="effect1_dropShadow_134_19538" result="shape"/>
</filter>
</defs>
</svg>
