<svg width="45" height="45" viewBox="0 0 45 45" fill="none" xmlns="http://www.w3.org/2000/svg">
<rect x="45" y="45" width="45" height="45" rx="22.5" transform="rotate(-180 45 45)" fill="#254B86"/>
<circle cx="22.5" cy="22.4986" r="19.3608" transform="rotate(-180 22.5 22.4986)" stroke="#1890FF" stroke-width="4"/>
<path fill-rule="evenodd" clip-rule="evenodd" d="M21.1498 24.1481L26.0283 27.8511C26.9081 28.519 27.1689 29.833 26.6108 30.7862C26.0526 31.7394 24.887 31.9708 24.0071 31.3029L14.2189 23.8731L11.8736 22.0929L14.121 20.387L23.9093 12.9572C24.7524 12.3172 25.9321 12.5865 26.5443 13.5586C27.1564 14.5308 26.9692 15.8376 26.1262 16.4776L21.2905 20.1481L28.3081 20.1481C29.4127 20.1481 30.3081 21.0435 30.3081 22.1481C30.3081 23.2526 29.4127 24.1481 28.3081 24.1481L21.1498 24.1481Z" fill="#1890FF"/>
</svg>
