<svg width="35" height="43" viewBox="0 0 35 43" fill="none" xmlns="http://www.w3.org/2000/svg">
<path d="M6.11618 0.552734C4.54619 0.552734 3.0405 1.17641 1.93036 2.28656C0.820208 3.39671 0.196533 4.90239 0.196533 6.47238L0.196533 36.5259C0.196533 38.0959 0.820208 39.6016 1.93036 40.7118C3.0405 41.8219 4.54619 42.4456 6.11618 42.4456L33.4376 42.4456C33.7999 42.4456 34.1474 42.3017 34.4036 42.0455C34.6598 41.7893 34.8037 41.4418 34.8037 41.0795C34.8037 40.7172 34.6598 40.3697 34.4036 40.1136C34.1474 39.8574 33.7999 39.7134 33.4376 39.7134L6.11618 39.7134C5.34971 39.7134 4.60891 39.4372 4.02953 38.9354C3.45014 38.4337 3.07096 37.7399 2.96146 36.9813L33.4376 36.9813C33.7999 36.9813 34.1474 36.8374 34.4036 36.5812C34.6598 36.325 34.8037 35.9775 34.8037 35.6152L34.8037 6.47238C34.8037 4.90239 34.18 3.39671 33.0699 2.28656C31.9597 1.17641 30.454 0.552734 28.884 0.552734L6.11618 0.552734ZM21.143 16.0294C21.1439 16.996 20.7609 17.9235 20.078 18.6077C19.3952 19.2918 18.4686 19.6768 17.5019 19.6777C16.5353 19.6787 15.6079 19.2956 14.9237 18.6128C14.2395 17.93 13.8546 17.0033 13.8536 16.0367C13.8531 15.5581 13.9469 15.084 14.1296 14.6417C14.3124 14.1993 14.5804 13.7972 14.9185 13.4585C15.6014 12.7743 16.528 12.3893 17.4946 12.3884C18.4613 12.3874 19.3887 12.7705 20.0729 13.4533C20.7571 14.1361 21.142 15.0628 21.143 16.0294ZM23.8751 22.98V23.9636C23.8751 25.9398 21.1612 27.4188 17.5001 27.4188C13.839 27.4188 11.1251 25.938 11.1251 23.9654V22.98C11.1244 22.7861 11.1619 22.5939 11.2355 22.4146C11.3091 22.2352 11.4173 22.072 11.554 21.9345C11.6907 21.797 11.8531 21.6877 12.0321 21.613C12.211 21.5383 12.4029 21.4996 12.5968 21.4992H22.4034C22.5973 21.4996 22.7892 21.5383 22.9681 21.613C23.1471 21.6877 23.3095 21.797 23.4462 21.9345C23.5829 22.072 23.6911 22.2352 23.7647 22.4146C23.8383 22.5939 23.8758 22.7861 23.8751 22.98Z" fill="white" fill-opacity="0.5"/>
</svg>
