<svg width="20" height="20" viewBox="0 0 20 20" fill="none" xmlns="http://www.w3.org/2000/svg">
<circle cx="10" cy="10" r="10" fill="#3765AE"/>
<path d="M10.7811 5.23828H8.74299C7.01836 5.23828 6.15605 5.23828 5.4792 5.55975C4.88327 5.84279 4.38813 6.29626 4.05865 6.86077C3.68443 7.50193 3.62299 8.34795 3.50012 10.04L3.33847 12.266C3.2592 13.3575 4.13806 14.2859 5.25056 14.2859C5.81947 14.2859 6.35899 14.0373 6.72321 13.6075L6.9697 13.3165C7.19516 13.0504 7.30789 12.9173 7.43626 12.8098C7.70536 12.5844 8.03113 12.4343 8.37944 12.3753C8.54559 12.3471 8.72168 12.3471 9.07387 12.3471H10.4503C10.8025 12.3471 10.9785 12.3471 11.1447 12.3753C11.493 12.4343 11.8188 12.5844 12.0879 12.8098C12.2162 12.9173 12.329 13.0504 12.5544 13.3165L12.8009 13.6075C13.1651 14.0373 13.7047 14.2859 14.2736 14.2859C15.3861 14.2859 16.2649 13.3575 16.1857 12.266L16.024 10.04C15.9011 8.34795 15.8397 7.50193 15.4655 6.86077C15.136 6.29626 14.6409 5.84279 14.0449 5.55975C13.3681 5.23828 12.5058 5.23828 10.7811 5.23828Z" fill="#1890FF"/>
<path d="M5.8199 9.11583H8.44801M7.13395 7.82332V10.4083M11.7332 9.76209H11.7397M13.7042 8.46957H13.7108M8.74299 5.23828H10.7811C12.5058 5.23828 13.3681 5.23828 14.0449 5.55975C14.6409 5.84279 15.136 6.29626 15.4655 6.86077C15.8397 7.50193 15.9011 8.34795 16.024 10.04L16.1857 12.266C16.2649 13.3575 15.3861 14.2859 14.2736 14.2859C13.7047 14.2859 13.1651 14.0373 12.8009 13.6075L12.5544 13.3165C12.329 13.0504 12.2162 12.9173 12.0879 12.8098C11.8188 12.5844 11.493 12.4343 11.1447 12.3753C10.9785 12.3471 10.8025 12.3471 10.4503 12.3471H9.07387C8.72168 12.3471 8.54559 12.3471 8.37944 12.3753C8.03113 12.4343 7.70536 12.5844 7.43626 12.8098C7.30789 12.9173 7.19516 13.0504 6.9697 13.3165L6.72321 13.6075C6.35899 14.0373 5.81947 14.2859 5.25056 14.2859C4.13806 14.2859 3.2592 13.3575 3.33847 12.266L3.50012 10.04C3.62299 8.34795 3.68443 7.50193 4.05865 6.86077C4.38813 6.29626 4.88327 5.84279 5.4792 5.55975C6.15605 5.23828 7.01836 5.23828 8.74299 5.23828Z" stroke="white" stroke-width="1.5" stroke-linecap="round" stroke-linejoin="round"/>
</svg>
