<svg width="37" height="37" viewBox="0 0 37 37" fill="none" xmlns="http://www.w3.org/2000/svg">
<circle cx="18.5" cy="18.5" r="18.5" fill="#FEB25E"/>
<g clip-path="url(#clip0_81_4831)">
<g clip-path="url(#clip1_81_4831)">
<path d="M15.82 13.168L15.0898 15.8485H16.5502L15.82 13.168Z" fill="white"/>
<path d="M25.0744 8.14062H11.1814C10.4912 8.14062 9.92969 8.70213 9.92969 9.39232V20.3237H26.3261V9.39232C26.3261 8.70213 25.7646 8.14062 25.0744 8.14062ZM18.4051 18.4C18.1883 18.5267 17.9633 18.59 17.7299 18.59C17.4431 18.59 17.2731 18.4934 17.2198 18.2999L16.8797 17.0497H14.7692L14.4291 18.2999C14.3757 18.4934 14.2056 18.59 13.919 18.59C13.6855 18.59 13.4605 18.5267 13.2438 18.4C13.027 18.2734 12.9187 18.1234 12.9187 17.9499C12.9187 17.9299 12.9253 17.8934 12.9388 17.8399L14.7992 11.7385C14.8525 11.5719 14.9742 11.4434 15.1643 11.3534C15.3544 11.2634 15.5727 11.2184 15.8195 11.2184C16.0661 11.2184 16.2845 11.2634 16.4746 11.3534C16.6646 11.4434 16.7862 11.5719 16.8397 11.7385L18.7101 17.8399C18.7234 17.8933 18.7301 17.9299 18.7301 17.9499C18.7301 18.1234 18.6217 18.2734 18.4051 18.4ZM23.201 18.1099C23.201 18.2433 23.1293 18.3566 22.986 18.45C22.8425 18.5435 22.6609 18.5901 22.4409 18.5901C22.2474 18.5901 22.0841 18.5402 21.9508 18.4405C21.8173 18.3408 21.7507 18.2198 21.7507 18.0774V17.8424C21.2906 18.4075 20.7838 18.6901 20.2304 18.6901C19.8636 18.6901 19.5585 18.5721 19.3152 18.3358C19.0717 18.0997 18.9501 17.7558 18.9501 17.3043C18.9501 16.7712 19.1517 16.3955 19.5553 16.177C19.9586 15.9587 20.537 15.8494 21.2906 15.8494H21.6507V15.7447C21.6507 15.5351 21.5907 15.3535 21.4706 15.1998C21.3506 15.0461 21.1606 14.9692 20.9005 14.9692C20.5805 14.9692 20.317 15.031 20.1103 15.1543C19.9036 15.2777 19.7768 15.3393 19.7302 15.3393C19.5702 15.3393 19.4434 15.261 19.3502 15.1042C19.2567 14.9476 19.2101 14.7692 19.2101 14.5691C19.2101 14.3491 19.3951 14.1607 19.7653 14.004C20.1353 13.8474 20.5204 13.7689 20.9205 13.7689C21.6872 13.7689 22.2591 13.9557 22.6359 14.3291C23.0125 14.7026 23.201 15.1692 23.201 15.7294V18.1099H23.201Z" fill="white"/>
<path d="M21.612 16.6016C21.3918 16.6016 21.2101 16.611 21.0668 16.6294C20.9233 16.648 20.795 16.696 20.6817 16.7732C20.5683 16.8504 20.5117 16.9601 20.5117 17.1024C20.5117 17.3621 20.6417 17.4918 20.9018 17.4918C21.0684 17.4918 21.2352 17.4054 21.4019 17.2322C21.5685 17.059 21.652 16.8612 21.652 16.6386V16.6016H21.612Z" fill="white"/>
<path d="M9.92969 21.5391V27.609C9.92969 28.2992 10.4912 28.8607 11.1814 28.8607H25.0744C25.7646 28.8607 26.3261 28.2992 26.3261 27.609V21.5391H9.92969ZM13.4015 22.9792H16.5535C16.8891 22.9792 17.1612 23.2513 17.1612 23.5869C17.1612 23.9225 16.8891 24.1946 16.5535 24.1946H13.4015C13.0659 24.1946 12.7938 23.9225 12.7938 23.5869C12.7938 23.2513 13.0659 22.9792 13.4015 22.9792ZM18.9979 26.1288H13.4015C13.0659 26.1288 12.7938 25.8567 12.7938 25.5211C12.7938 25.1855 13.0659 24.9134 13.4015 24.9134H18.9979C19.3335 24.9134 19.6056 25.1855 19.6056 25.5211C19.6056 25.8567 19.3335 26.1288 18.9979 26.1288ZM22.8123 26.1288H21.3006C20.965 26.1288 20.693 25.8567 20.693 25.5211C20.693 25.1855 20.965 24.9134 21.3006 24.9134H22.8123C23.1479 24.9134 23.42 25.1855 23.42 25.5211C23.42 25.8567 23.1479 26.1288 22.8123 26.1288Z" fill="white"/>
</g>
</g>
<defs>
<clipPath id="clip0_81_4831">
<rect width="15.54" height="20.72" fill="white" transform="translate(10.3594 8.14062)"/>
</clipPath>
<clipPath id="clip1_81_4831">
<rect width="20.72" height="20.72" fill="white" transform="translate(7.76953 8.14062)"/>
</clipPath>
</defs>
</svg>
