<svg width="11" height="12" viewBox="0 0 11 12" fill="none" xmlns="http://www.w3.org/2000/svg">
<path fill-rule="evenodd" clip-rule="evenodd" d="M4.2307 10.1925C4.2307 11.0081 4.89185 11.6692 5.70742 11.6692C6.523 11.6692 7.18415 11.008 7.18415 10.1925V7.66714H9.27733C10.1609 7.66714 10.8771 6.95089 10.8771 6.06736C10.8771 5.18382 10.1609 4.46757 9.27733 4.46757H7.18415V1.94743C7.18415 1.13186 6.523 0.470703 5.70742 0.470703C4.89185 0.470703 4.2307 1.13186 4.2307 1.94743V4.46757H2.13982C1.25629 4.46757 0.540039 5.18382 0.540039 6.06736C0.540039 6.95089 1.25629 7.66714 2.13983 7.66714H4.2307V10.1925Z" fill="url(#paint0_linear_81_4662)"/>
<defs>
<linearGradient id="paint0_linear_81_4662" x1="1.2784" y1="4.69871" x2="2.60368" y2="9.36963" gradientUnits="userSpaceOnUse">
<stop stop-color="#FFE93A"/>
<stop offset="0.503125" stop-color="#EEA71D"/>
</linearGradient>
</defs>
</svg>
