<svg width="11" height="15" viewBox="0 0 11 15" fill="none" xmlns="http://www.w3.org/2000/svg">
<path d="M6.55469 10.8398H3.91797C3.91797 9.79818 4.02539 9.04622 4.24023 8.58398C4.50065 8.01107 5.07357 7.41536 5.95898 6.79688C6.38216 6.50391 6.69466 6.20117 6.89648 5.88867C7.09831 5.57617 7.19922 5.21484 7.19922 4.80469C7.19922 4.09505 6.98438 3.56771 6.55469 3.22266C6.20964 2.94271 5.7832 2.80273 5.27539 2.80273C4.47461 2.80273 3.88867 3.06966 3.51758 3.60352C3.25065 3.98763 3.11719 4.49219 3.11719 5.11719L0.275391 5.15625C0.275391 3.54818 0.802734 2.32422 1.85742 1.48438C2.72331 0.78776 3.79753 0.439453 5.08008 0.439453C6.66211 0.439453 7.92839 0.839844 8.87891 1.64062C9.75781 2.38932 10.1973 3.41471 10.1973 4.7168C10.1973 5.49154 9.98893 6.17188 9.57227 6.75781C9.21419 7.26562 8.62174 7.8125 7.79492 8.39844C7.32617 8.74349 7.01367 9.04948 6.85742 9.31641C6.6556 9.66797 6.55469 10.1758 6.55469 10.8398ZM6.75977 12.1973V15H3.83984V12.1973H6.75977Z" fill="white"/>
</svg>
