<svg width="20" height="20" viewBox="0 0 20 20" fill="none" xmlns="http://www.w3.org/2000/svg">
<circle cx="10" cy="10" r="10" fill="#3765AE"/>
<path opacity="0.4" d="M10.5858 4.3737L11.9217 7.09864C12.0201 7.29606 12.2079 7.43316 12.4246 7.46363L15.4252 7.90722C15.6005 7.93221 15.7595 8.02604 15.8669 8.16924C15.9731 8.3106 16.0187 8.48975 15.9929 8.66584C15.9719 8.81208 15.9041 8.94735 15.8003 9.05094L13.626 11.1903C13.467 11.3396 13.395 11.5608 13.4334 11.7771L13.9687 14.7848C14.0257 15.1479 13.7887 15.4904 13.4334 15.5592C13.287 15.583 13.1369 15.558 13.0049 15.4898L10.3283 14.0743C10.1297 13.9725 9.89503 13.9725 9.69639 14.0743L7.01982 15.4898C6.69094 15.6671 6.28346 15.5464 6.10042 15.2174C6.0326 15.0864 6.0086 14.9371 6.0308 14.7915L6.56612 11.7832C6.60453 11.5675 6.53191 11.3451 6.37348 11.1958L4.19921 9.05764C3.94055 8.80416 3.93275 8.38677 4.18181 8.12415C4.18721 8.11866 4.19321 8.11257 4.19921 8.10647C4.30243 7.99984 4.43806 7.93221 4.58449 7.91454L7.58514 7.47033C7.80118 7.43926 7.98902 7.30338 8.08805 7.10473L9.37592 4.3737C9.49055 4.13972 9.7282 3.99409 9.98625 4.00018H10.0667C10.2905 4.0276 10.4856 4.16836 10.5858 4.3737Z" fill="white"/>
<path d="M9.99521 13.9984C9.87899 14.0021 9.76576 14.0337 9.66392 14.0904L7.00043 15.5027C6.67454 15.6606 6.28454 15.538 6.10182 15.2217C6.03412 15.0925 6.00956 14.9444 6.03233 14.7993L6.56431 11.7974C6.60025 11.5792 6.52836 11.3573 6.372 11.2037L4.19676 9.06614C3.93856 8.80953 3.93377 8.38835 4.18658 8.12565C4.19017 8.12199 4.19317 8.11894 4.19676 8.11589C4.2998 8.01228 4.4328 7.94401 4.57598 7.92268L7.57914 7.47407C7.7966 7.44603 7.98531 7.30828 8.08116 7.10835L9.38655 4.34295C9.51056 4.11987 9.74839 3.98699 10 4.00101C9.99521 4.18204 9.99521 13.8753 9.99521 13.9984Z" fill="white"/>
</svg>
