<svg width="37" height="37" viewBox="0 0 37 37" fill="none" xmlns="http://www.w3.org/2000/svg">
<circle cx="18.5" cy="18.5" r="18.5" fill="#60EFDB"/>
<g clip-path="url(#clip0_81_4815)" filter="url(#filter0_d_81_4815)">
<path d="M11.7767 22.0581C11.7767 22.0581 11.2924 24.4338 13.7645 23.7159C17.8383 22.532 18.0341 23.8237 19.2838 24.269C21.1502 24.9331 23.2487 24.8602 25.418 22.8125C27.6779 20.6776 19.7282 20.0849 17.5589 19.8868C15.3915 19.6902 12.0034 22.0185 12.0034 22.0185" fill="#E2E2E2"/>
<path d="M8.19723 23.5225L7.07995 26.3372V26.5147C7.07995 26.5147 6.54308 27.6876 7.6785 26.8587C7.75467 26.8523 7.83267 26.8285 7.83267 26.8285C7.83267 26.8285 10.8798 24.6794 10.9814 24.6509C11.0829 24.6224 12.4469 22.7474 12.4469 22.7474C12.4469 22.7474 9.86227 20.9422 9.43603 21.5144C9.01161 22.0834 8.19723 23.5225 8.19723 23.5225Z" fill="#3C3C3C"/>
<path d="M19.9118 14.3439C19.9118 14.3439 15.9451 12.5752 14.1803 13.6878C12.6277 14.6672 11.349 15.2267 10.5673 15.6213C9.78558 16.016 8.64653 15.9399 8.48874 17.7927C8.35452 19.3918 8.3527 20.7421 8.06069 21.2873C7.23361 22.8263 9.45003 23.8771 10.2735 20.991C11.1187 18.5439 13.5491 20.636 15.4445 20.2413C17.3417 19.8467 20.8568 16.875 21.2576 16.0778C21.809 14.981 19.9118 14.3439 19.9118 14.3439Z" fill="#E2E2E2"/>
<path d="M10.1437 20.3415C10.1437 20.3415 19.1599 8.25353 19.9634 7.46425C20.6817 6.75897 20.1394 6.72886 22.7548 8.17428C23.4114 8.53722 12.9841 20.863 12.9841 20.863L9.98047 20.6252L10.1437 20.3415Z" fill="#3C3C3C"/>
<path d="M17.0704 16.2952C17.0704 16.2952 15.5342 18.2684 13.637 19.0577C11.7398 19.847 9.39096 20.1624 9.75189 21.5048C10.1128 22.8472 11.9193 23.7949 14.8105 21.8994C16.3467 21.0309 17.25 21.7409 18.6049 22.294C19.9598 22.8472 20.23 23.7934 23.5728 23.3195C26.9155 22.8456 27.2475 23.3876 28.722 24.0295C30.1676 23.2402 30.3472 20.8724 30.3472 19.3715C30.3472 17.8706 30.1386 18.064 28.089 17.8722C26.4639 17.3983 22.1018 15.498 20.9356 14.8593C20.4658 14.6025 19.3503 13.8957 17.9501 15.3015" fill="white"/>
</g>
<defs>
<filter id="filter0_d_81_4815" x="4.17969" y="4.17969" width="27.1602" height="27.1602" filterUnits="userSpaceOnUse" color-interpolation-filters="sRGB">
<feFlood flood-opacity="0" result="BackgroundImageFix"/>
<feColorMatrix in="SourceAlpha" type="matrix" values="0 0 0 0 0 0 0 0 0 0 0 0 0 0 0 0 0 0 127 0" result="hardAlpha"/>
<feOffset/>
<feGaussianBlur stdDeviation="0.5"/>
<feComposite in2="hardAlpha" operator="out"/>
<feColorMatrix type="matrix" values="0 0 0 0 0 0 0 0 0 0 0 0 0 0 0 0 0 0 0.25 0"/>
<feBlend mode="normal" in2="BackgroundImageFix" result="effect1_dropShadow_81_4815"/>
<feBlend mode="normal" in="SourceGraphic" in2="effect1_dropShadow_81_4815" result="shape"/>
</filter>
<clipPath id="clip0_81_4815">
<rect width="25.16" height="25.16" fill="white" transform="translate(5.17969 5.17969)"/>
</clipPath>
</defs>
</svg>
