<svg width="203" height="62" viewBox="0 0 203 62" fill="none" xmlns="http://www.w3.org/2000/svg">
<path d="M5.32767 6.15581C3.38997 4.28061 4.71744 1 7.41393 1H199C200.657 1 202 2.34315 202 4V58C202 59.6569 200.657 61 199 61H198H178H7.41392C4.71743 61 3.38996 57.7194 5.32767 55.8442L28.7723 33.1558C29.9906 31.9768 29.9906 30.0232 28.7723 28.8442L5.32767 6.15581Z" fill="#1890FF" stroke="#1890FF" stroke-linejoin="round"/>
<path d="M83.8984 39L75.8828 28.1953L75.8242 28.2188L75.9531 39H71.6055V22.1953C71.6055 21.8984 71.707 21.6641 71.9102 21.4922C72.1211 21.3203 72.4023 21.2344 72.7539 21.2344H75.5195L83.6406 32.4023L83.6875 32.3555L83.4883 21.2344H87.8359V37.9336C87.8359 38.3477 87.7344 38.6289 87.5312 38.7773C87.3281 38.9258 87.0195 39 86.6055 39H83.8984ZM104.547 32.332C104.547 34.3633 103.859 36.0508 102.484 37.3945C101.117 38.7383 99.4102 39.4102 97.3633 39.4102C95.3164 39.4102 93.6133 38.7383 92.2539 37.3945C90.8789 36.0508 90.1914 34.3633 90.1914 32.332C90.1914 30.293 90.8789 28.6016 92.2539 27.2578C93.6133 25.9141 95.3164 25.2422 97.3633 25.2422C99.4102 25.2422 101.117 25.9141 102.484 27.2578C103.859 28.6016 104.547 30.293 104.547 32.332ZM100.562 32.332C100.562 31.4102 100.262 30.625 99.6602 29.9766C99.043 29.3047 98.2773 28.9688 97.3633 28.9688C96.457 28.9688 95.6953 29.3047 95.0781 29.9766C94.4766 30.625 94.1758 31.4102 94.1758 32.332C94.1758 33.2461 94.4766 34.0312 95.0781 34.6875C95.6953 35.3516 96.457 35.6836 97.3633 35.6836C98.2773 35.6836 99.043 35.3516 99.6602 34.6875C100.262 34.0312 100.562 33.2461 100.562 32.332ZM111.578 28.6992V38.0391C111.578 38.2266 111.559 38.3828 111.52 38.5078C111.488 38.6328 111.43 38.7344 111.344 38.8125C111.266 38.8828 111.156 38.9336 111.016 38.9648C110.875 38.9883 110.699 39 110.488 39H107.594V28.6992H105.625V26.4727C105.625 26.3398 105.633 26.2227 105.648 26.1211C105.672 26.0195 105.715 25.9375 105.777 25.875C105.84 25.8047 105.926 25.7539 106.035 25.7227C106.152 25.6914 106.305 25.6758 106.492 25.6758H107.594V22.5234C107.594 22.2969 107.609 22.1055 107.641 21.9492C107.68 21.7852 107.746 21.6523 107.84 21.5508C107.934 21.4414 108.059 21.3633 108.215 21.3164C108.371 21.2617 108.57 21.2344 108.812 21.2344H111.578V25.6758H113.5V28.0078C113.5 28.2812 113.434 28.4648 113.301 28.5586C113.176 28.6523 113.004 28.6992 112.785 28.6992H111.578ZM119.336 32.332C119.336 31.9102 119.453 31.5625 119.688 31.2891C119.93 31.0078 120.293 30.8672 120.777 30.8672H124.727C124.266 29.3516 123.191 28.5898 121.504 28.582C119.668 28.5742 118.488 29.4922 117.965 31.3359C117.934 31.5078 117.906 31.6758 117.883 31.8398C117.867 31.9961 117.859 32.1602 117.859 32.332C117.859 32.4961 117.871 32.6758 117.895 32.8711C117.918 33.0586 117.953 33.2695 118 33.5039C118.398 35.2148 119.582 36.0703 121.551 36.0703C122.605 36.0703 123.484 35.6562 124.188 34.8281H128.055C127.461 36.2109 126.609 37.3125 125.5 38.1328C124.32 39 123.004 39.4336 121.551 39.4336C119.605 39.4336 117.945 38.7422 116.57 37.3594C115.188 35.9844 114.496 34.3242 114.496 32.3789C114.496 30.4258 115.172 28.75 116.523 27.3516C117.891 25.9297 119.543 25.2188 121.48 25.2188C123.496 25.2188 125.18 25.9297 126.531 27.3516C127.852 28.75 128.512 30.4648 128.512 32.4961C128.512 32.8789 128.48 33.2305 128.418 33.5508H119.336V32.332ZM134.711 39H132.273C131.984 39 131.738 38.9805 131.535 38.9414C131.34 38.8945 131.18 38.8242 131.055 38.7305C130.938 38.6289 130.852 38.4961 130.797 38.332C130.75 38.168 130.727 37.9688 130.727 37.7344V21.2227H133.469C133.68 21.2227 133.863 21.2344 134.02 21.2578C134.176 21.2812 134.305 21.3359 134.406 21.4219C134.508 21.5 134.582 21.6133 134.629 21.7617C134.684 21.9102 134.711 22.1094 134.711 22.3594V27.0938H134.758C135.133 26.4688 135.695 25.9922 136.445 25.6641C137.117 25.3672 137.852 25.2188 138.648 25.2188C140.609 25.2188 142.227 25.918 143.5 27.3164C144.727 28.668 145.34 30.3398 145.34 32.332C145.34 34.3555 144.738 36.0391 143.535 37.3828C142.285 38.7656 140.656 39.457 138.648 39.457C137.844 39.457 137.105 39.3125 136.434 39.0234C135.652 38.6875 135.094 38.1992 134.758 37.5586H134.711V39ZM134.711 32.332C134.711 33.3008 135.023 34.1094 135.648 34.7578C136.281 35.4062 137.078 35.7305 138.039 35.7305C138.969 35.7305 139.758 35.4023 140.406 34.7461C141.039 34.0977 141.355 33.3086 141.355 32.3789C141.355 31.4102 141.051 30.6016 140.441 29.9531C139.816 29.2812 139.023 28.9453 138.062 28.9453C137.094 28.9453 136.293 29.2656 135.66 29.9062C135.027 30.5469 134.711 31.3555 134.711 32.332ZM161.102 32.332C161.102 34.3633 160.414 36.0508 159.039 37.3945C157.672 38.7383 155.965 39.4102 153.918 39.4102C151.871 39.4102 150.168 38.7383 148.809 37.3945C147.434 36.0508 146.746 34.3633 146.746 32.332C146.746 30.293 147.434 28.6016 148.809 27.2578C150.168 25.9141 151.871 25.2422 153.918 25.2422C155.965 25.2422 157.672 25.9141 159.039 27.2578C160.414 28.6016 161.102 30.293 161.102 32.332ZM157.117 32.332C157.117 31.4102 156.816 30.625 156.215 29.9766C155.598 29.3047 154.832 28.9688 153.918 28.9688C153.012 28.9688 152.25 29.3047 151.633 29.9766C151.031 30.625 150.73 31.4102 150.73 32.332C150.73 33.2461 151.031 34.0312 151.633 34.6875C152.25 35.3516 153.012 35.6836 153.918 35.6836C154.832 35.6836 155.598 35.3516 156.215 34.6875C156.816 34.0312 157.117 33.2461 157.117 32.332ZM177.086 32.332C177.086 34.3633 176.398 36.0508 175.023 37.3945C173.656 38.7383 171.949 39.4102 169.902 39.4102C167.855 39.4102 166.152 38.7383 164.793 37.3945C163.418 36.0508 162.73 34.3633 162.73 32.332C162.73 30.293 163.418 28.6016 164.793 27.2578C166.152 25.9141 167.855 25.2422 169.902 25.2422C171.949 25.2422 173.656 25.9141 175.023 27.2578C176.398 28.6016 177.086 30.293 177.086 32.332ZM173.102 32.332C173.102 31.4102 172.801 30.625 172.199 29.9766C171.582 29.3047 170.816 28.9688 169.902 28.9688C168.996 28.9688 168.234 29.3047 167.617 29.9766C167.016 30.625 166.715 31.4102 166.715 32.332C166.715 33.2461 167.016 34.0312 167.617 34.6875C168.234 35.3516 168.996 35.6836 169.902 35.6836C170.816 35.6836 171.582 35.3516 172.199 34.6875C172.801 34.0312 173.102 33.2461 173.102 32.332ZM186.93 31.5352L191.805 39H187.293L183.52 32.5898H183.473V37.7695C183.473 38.2148 183.363 38.5312 183.145 38.7188C182.926 38.9062 182.629 39 182.254 39H179.488V22.5C179.488 22.1484 179.594 21.8516 179.805 21.6094C180.016 21.3594 180.328 21.2344 180.742 21.2344H183.473V30.5039H183.52L187.211 25.6758H191.945L186.93 31.5352Z" fill="white"/>
<path d="M53.4346 24.913L55.7064 24.0392C55.8517 23.9834 55.9244 23.9554 55.9924 23.9189C56.0528 23.8865 56.1103 23.8491 56.1645 23.8071C56.2254 23.7598 56.2805 23.7048 56.3905 23.5947L61.0085 18.9768C61.4607 18.5245 61.4607 17.7914 61.0085 17.3392C60.5562 16.8869 59.8231 16.8869 59.3709 17.3392L54.7529 21.9571C54.6429 22.0672 54.5878 22.1222 54.5405 22.1832C54.4985 22.2373 54.4611 22.2949 54.4287 22.3552C54.3922 22.4232 54.3643 22.4959 54.3084 22.6412L53.4346 24.913ZM53.4346 24.913L54.2772 22.7223C54.3375 22.5656 54.3676 22.4872 54.4193 22.4513C54.4645 22.4199 54.5204 22.408 54.5745 22.4184C54.6363 22.4302 54.6957 22.4895 54.8144 22.6083L55.7393 23.5332C55.8581 23.6519 55.9175 23.7113 55.9293 23.7732C55.9396 23.8272 55.9277 23.8831 55.8963 23.9283C55.8604 23.98 55.7821 24.0102 55.6253 24.0705L53.4346 24.913Z" stroke="white" stroke-linecap="round" stroke-linejoin="round"/>
<path d="M55.1304 19.2617H44C42.3431 19.2617 41 20.6049 41 22.2617V40.0008C41 41.6577 42.3431 43.0008 44 43.0008H56.087C57.7438 43.0008 59.087 41.6577 59.087 40.0008V23.2182M44.3913 27.1748H55.6957M44.3913 31.6965H55.6957M44.3913 36.2182H55.6957" stroke="white" stroke-width="2.26"/>
<path d="M57.9565 23.2166L60.2174 20.8945V23.7818H57.9565V23.2166Z" fill="white"/>
<path d="M53.4346 18.1309H57.3911L55.1302 20.3917H53.4346V18.1309Z" fill="white"/>
</svg>
