<svg width="38" height="37" viewBox="0 0 38 37" fill="none" xmlns="http://www.w3.org/2000/svg">
<circle cx="18.8379" cy="18.5" r="18.5" fill="#FEB25E"/>
<g clip-path="url(#clip0_28_6222)">
<g clip-path="url(#clip1_28_6222)">
<path d="M16.1599 13.168L15.4297 15.8485H16.89L16.1599 13.168Z" fill="white"/>
<path d="M25.4142 8.14062H11.5212C10.831 8.14062 10.2695 8.70213 10.2695 9.39232V20.3237H26.6659V9.39232C26.6659 8.70213 26.1044 8.14062 25.4142 8.14062ZM18.7449 18.4C18.5281 18.5267 18.3031 18.59 18.0698 18.59C17.783 18.59 17.6129 18.4934 17.5597 18.2999L17.2196 17.0497H15.109L14.7689 18.2999C14.7155 18.4934 14.5454 18.59 14.2589 18.59C14.0254 18.59 13.8003 18.5267 13.5837 18.4C13.3669 18.2734 13.2586 18.1234 13.2586 17.9499C13.2586 17.9299 13.2651 17.8934 13.2786 17.8399L15.1391 11.7385C15.1923 11.5719 15.3141 11.4434 15.5042 11.3534C15.6942 11.2634 15.9125 11.2184 16.1593 11.2184C16.4059 11.2184 16.6244 11.2634 16.8145 11.3534C17.0045 11.4434 17.1261 11.5719 17.1796 11.7385L19.05 17.8399C19.0632 17.8933 19.07 17.9299 19.07 17.9499C19.07 18.1234 18.9615 18.2734 18.7449 18.4ZM23.5409 18.1099C23.5409 18.2433 23.4691 18.3566 23.3258 18.45C23.1823 18.5435 23.0008 18.5901 22.7807 18.5901C22.5872 18.5901 22.4239 18.5402 22.2906 18.4405C22.1571 18.3408 22.0906 18.2198 22.0906 18.0774V17.8424C21.6305 18.4075 21.1237 18.6901 20.5702 18.6901C20.2034 18.6901 19.8984 18.5721 19.655 18.3358C19.4115 18.0997 19.2899 17.7558 19.2899 17.3043C19.2899 16.7712 19.4915 16.3955 19.8951 16.177C20.2985 15.9587 20.8769 15.8494 21.6305 15.8494H21.9906V15.7447C21.9905 15.5351 21.9305 15.3535 21.8105 15.1998C21.6905 15.0461 21.5005 14.9692 21.2404 14.9692C20.9203 14.9692 20.6568 15.031 20.4502 15.1543C20.2434 15.2777 20.1167 15.3393 20.0701 15.3393C19.9101 15.3393 19.7833 15.261 19.69 15.1042C19.5965 14.9476 19.5499 14.7692 19.5499 14.5691C19.5499 14.3491 19.735 14.1607 20.1051 14.004C20.4752 13.8474 20.8603 13.7689 21.2604 13.7689C22.0271 13.7689 22.5989 13.9557 22.9757 14.3291C23.3524 14.7026 23.5409 15.1692 23.5409 15.7294V18.1099H23.5409Z" fill="white"/>
<path d="M21.9499 16.5996C21.7297 16.5996 21.548 16.609 21.4047 16.6275C21.2612 16.646 21.1329 16.6941 21.0196 16.7712C20.9061 16.8485 20.8496 16.9582 20.8496 17.1004C20.8496 17.3601 20.9796 17.4898 21.2397 17.4898C21.4063 17.4898 21.5731 17.4034 21.7398 17.2302C21.9064 17.0571 21.9899 16.8592 21.9899 16.6366V16.5996H21.9499Z" fill="white"/>
<path d="M10.2695 21.5391V27.609C10.2695 28.2992 10.831 28.8607 11.5212 28.8607H25.4142C26.1044 28.8607 26.6659 28.2992 26.6659 27.609V21.5391H10.2695ZM13.7413 22.9792H16.8933C17.2289 22.9792 17.501 23.2513 17.501 23.5869C17.501 23.9225 17.2289 24.1946 16.8933 24.1946H13.7413C13.4057 24.1946 13.1337 23.9225 13.1337 23.5869C13.1337 23.2513 13.4058 22.9792 13.7413 22.9792ZM19.3378 26.1288H13.7413C13.4057 26.1288 13.1337 25.8567 13.1337 25.5211C13.1337 25.1855 13.4057 24.9134 13.7413 24.9134H19.3377C19.6733 24.9134 19.9454 25.1855 19.9454 25.5211C19.9454 25.8567 19.6734 26.1288 19.3378 26.1288ZM23.1522 26.1288H21.6405C21.3049 26.1288 21.0328 25.8567 21.0328 25.5211C21.0328 25.1855 21.3049 24.9134 21.6405 24.9134H23.1522C23.4878 24.9134 23.7598 25.1855 23.7598 25.5211C23.7598 25.8567 23.4878 26.1288 23.1522 26.1288Z" fill="white"/>
</g>
</g>
<defs>
<clipPath id="clip0_28_6222">
<rect width="15.54" height="20.72" fill="white" transform="translate(10.6973 8.14062)"/>
</clipPath>
<clipPath id="clip1_28_6222">
<rect width="20.72" height="20.72" fill="white" transform="translate(8.10742 8.14062)"/>
</clipPath>
</defs>
</svg>
