<svg width="37" height="37" viewBox="0 0 37 37" fill="none" xmlns="http://www.w3.org/2000/svg">
<circle cx="18.5" cy="18.5" r="18.5" fill="#FD485A"/>
<path d="M10.8932 16.6664H13.7552C14.9072 16.6664 15.4832 16.1564 15.4832 15.1364C15.4832 14.1524 14.8352 13.6604 13.5392 13.6604H10.8932V16.6664ZM8.0672 11.4644H14.1152C16.8512 11.4644 18.2192 12.5264 18.2192 14.6504C18.2192 15.8744 17.6372 16.7684 16.4732 17.3324C17.2532 17.5484 17.8412 17.9444 18.2372 18.5204C18.6332 19.0844 18.8312 19.7744 18.8312 20.5904C18.8312 21.8144 18.3932 22.7444 17.5172 23.3804C16.6412 24.0044 15.5672 24.3164 14.2952 24.3164H8.0672V11.4644ZM10.8932 22.1204H13.9172C15.3092 22.1204 16.0052 21.5564 16.0052 20.4284C16.0052 19.2044 15.3272 18.5924 13.9712 18.5924H10.8932V22.1204ZM27.293 19.6724C27.293 18.8204 27.107 18.1124 26.735 17.5484C26.375 16.9724 25.835 16.6844 25.115 16.6844C24.395 16.6844 23.849 16.9724 23.477 17.5484C23.117 18.1124 22.937 18.8204 22.937 19.6724C22.937 20.5124 23.123 21.2204 23.495 21.7964C23.867 22.3604 24.407 22.6424 25.115 22.6424C25.823 22.6424 26.363 22.3604 26.735 21.7964C27.107 21.2204 27.293 20.5124 27.293 19.6724ZM20.471 11.4644H23.027V16.1444H23.063C23.675 15.2204 24.653 14.7584 25.997 14.7584C27.029 14.7584 27.929 15.1784 28.697 16.0184C29.465 16.8584 29.849 18.0704 29.849 19.6544C29.849 21.2384 29.465 22.4504 28.697 23.2904C27.929 24.1304 27.029 24.5504 25.997 24.5504C24.473 24.5504 23.453 24.0764 22.937 23.1284H22.901V24.3164H20.471V11.4644Z" fill="white"/>
</svg>
